<svg id="visual" viewBox="0 0 960 300" width="960" height="300" xmlns="http://www.w3.org/2000/svg" xmlns:xlink="http://www.w3.org/1999/xlink" version="1.1"><rect x="0" y="0" width="960" height="300" fill="#001220"></rect><path d="M0 80L22.8 83.8C45.7 87.7 91.3 95.3 137 101.7C182.7 108 228.3 113 274 112.3C319.7 111.7 365.3 105.3 411.2 105.7C457 106 503 113 548.8 112.8C594.7 112.7 640.3 105.3 686 101.7C731.7 98 777.3 98 823 101.2C868.7 104.3 914.3 110.7 937.2 113.8L960 117L960 0L937.2 0C914.3 0 868.7 0 823 0C777.3 0 731.7 0 686 0C640.3 0 594.7 0 548.8 0C503 0 457 0 411.2 0C365.3 0 319.7 0 274 0C228.3 0 182.7 0 137 0C91.3 0 45.7 0 22.8 0L0 0Z" fill="#ff6f61"></path><path d="M0 82L22.8 81.2C45.7 80.3 91.3 78.7 137 79.5C182.7 80.3 228.3 83.7 274 82C319.7 80.3 365.3 73.7 411.2 72.5C457 71.3 503 75.7 548.8 77.8C594.7 80 640.3 80 686 81C731.7 82 777.3 84 823 84.8C868.7 85.7 914.3 85.3 937.2 85.2L960 85L960 0L937.2 0C914.3 0 868.7 0 823 0C777.3 0 731.7 0 686 0C640.3 0 594.7 0 548.8 0C503 0 457 0 411.2 0C365.3 0 319.7 0 274 0C228.3 0 182.7 0 137 0C91.3 0 45.7 0 22.8 0L0 0Z" fill="#f76455"></path><path d="M0 53L22.8 52.2C45.7 51.3 91.3 49.7 137 50.7C182.7 51.7 228.3 55.3 274 55.7C319.7 56 365.3 53 411.2 53.5C457 54 503 58 548.8 60.3C594.7 62.7 640.3 63.3 686 65.3C731.7 67.3 777.3 70.7 823 67.3C868.7 64 914.3 54 937.2 49L960 44L960 0L937.2 0C914.3 0 868.7 0 823 0C777.3 0 731.7 0 686 0C640.3 0 594.7 0 548.8 0C503 0 457 0 411.2 0C365.3 0 319.7 0 274 0C228.3 0 182.7 0 137 0C91.3 0 45.7 0 22.8 0L0 0Z" fill="#ee5849"></path><path d="M0 45L22.8 45C45.7 45 91.3 45 137 42.5C182.7 40 228.3 35 274 33.7C319.7 32.3 365.3 34.7 411.2 36.8C457 39 503 41 548.8 44.3C594.7 47.7 640.3 52.3 686 52.7C731.7 53 777.3 49 823 49C868.7 49 914.3 53 937.2 55L960 57L960 0L937.2 0C914.3 0 868.7 0 823 0C777.3 0 731.7 0 686 0C640.3 0 594.7 0 548.8 0C503 0 457 0 411.2 0C365.3 0 319.7 0 274 0C228.3 0 182.7 0 137 0C91.3 0 45.7 0 22.8 0L0 0Z" fill="#e64c3d"></path><path d="M0 18L22.8 17.2C45.7 16.3 91.3 14.7 137 14C182.7 13.3 228.3 13.7 274 15.8C319.7 18 365.3 22 411.2 23C457 24 503 22 548.8 22.3C594.7 22.7 640.3 25.3 686 27.3C731.7 29.3 777.3 30.7 823 30.5C868.7 30.3 914.3 28.7 937.2 27.8L960 27L960 0L937.2 0C914.3 0 868.7 0 823 0C777.3 0 731.7 0 686 0C640.3 0 594.7 0 548.8 0C503 0 457 0 411.2 0C365.3 0 319.7 0 274 0C228.3 0 182.7 0 137 0C91.3 0 45.7 0 22.8 0L0 0Z" fill="#dd3f31"></path></svg>